<svg xmlns="http://www.w3.org/2000/svg" viewBox="0 0 48 48" width="400" height="400">
	<style>
		:root {
			--color-255-15: #000b1f;
			--color-255-75: #73b1ff;
			--color-285-75: #a6a1ff;
		}
	</style>
	<rect
		height="100%"
		fill="var(--color-255-15)"
		width="100%"
	></rect>
	<use
		href="#shape"
		transform="rotate(-22.5)"
		transform-origin="50% 50%" />
	<use
		href="#shape"
		transform="rotate(22.5)"
		transform-origin="50% 50%" />

	<polyline
		fill="none"
		points="36,20 36,14 14,14 14,36 36,36 36,30"
		stroke="var(--color-255-75)"
		stroke-width="2"
	/>
	<polyline
		fill="none"
		points="22,14 22,28 28,28 28,22 22,22"
		stroke="var(--color-255-75)"
		stroke-width="2"
	/>
	<defs>
	<rect
		fill="var(--color-255-75)"
		height="26"
		transform="rotate(22.5)"
		transform-origin="50% 50%"
		width="26"
		x="11"
		y="11"
	></rect>
	<rect
		fill="var(--color-255-15)"
		height="13"
		transform="rotate(22.5)"
		transform-origin="50% 50%"
		width="13"
		x="18"
		y="18"
	></rect>
	<rect
		fill="var(--color-255-15)"
		height="13"
		transform="rotate(22.5)"
		transform-origin="50% 50%"
		width="13"
		x="24"
		y="11"
	></rect>
	<rect
		fill="var(--color-255-75)"
		height="11"
		transform="rotate(22.5)"
		transform-origin="50% 50%"
		width="11"
		x="26"
		y="11"
	></rect>
	<rect
		fill="var(--color-255-15)"
		height="4"
		transform="rotate(22.5)"
		transform-origin="50% 50%"
		width="4"
		x="29.5"
		y="14.5"
	></rect>
	<rect
		fill="var(--color-255-75)"
		height="2"
		transform="rotate(22.5)"
		transform-origin="50% 50%"
		width="6"
		x="20"
		y="20"
	></rect>
	</defs>
	<defs>
		<rect
		 	fill="var(--color-255-15)"
			height="32"
			id="shape"
			rx="2"
			stroke="var(--color-285-75)"
			stroke-width="2"
			width="32"
			x="8"
			y="8"
		></rect>
	</defs>
</svg>
